<svg width="16" height="15" viewBox="0 0 16 15" fill="none" xmlns="http://www.w3.org/2000/svg">
<path d="M10.6665 3.25H6.6665V4.25H10.6665V3.25ZM13.3332 3.125V6.5625L4.9665 7.95L3.33317 1.875H0.833171C0.65636 1.875 0.48679 1.94085 0.361766 2.05806C0.236742 2.17527 0.166504 2.33424 0.166504 2.5C0.166504 2.66576 0.236742 2.82473 0.361766 2.94194C0.48679 3.05915 0.65636 3.125 0.833171 3.125H2.31317L4.4665 11.25H13.3332V10H5.5065L5.2865 9.16875L14.6665 7.6125V3.125H13.3332ZM4.6665 11.875C4.46872 11.875 4.27538 11.93 4.11093 12.033C3.94648 12.136 3.81831 12.2824 3.74262 12.4537C3.66694 12.625 3.64713 12.8135 3.68572 12.9954C3.7243 13.1773 3.81954 13.3443 3.9594 13.4754C4.09925 13.6065 4.27743 13.6958 4.47141 13.732C4.66539 13.7682 4.86646 13.7496 5.04919 13.6786C5.23191 13.6077 5.38809 13.4875 5.49797 13.3333C5.60786 13.1792 5.6665 12.9979 5.6665 12.8125C5.6665 12.5639 5.56115 12.3254 5.37361 12.1496C5.18607 11.9738 4.93172 11.875 4.6665 11.875ZM12.6665 11.875C12.4687 11.875 12.2754 11.93 12.1109 12.033C11.9465 12.136 11.8183 12.2824 11.7426 12.4537C11.6669 12.625 11.6471 12.8135 11.6857 12.9954C11.7243 13.1773 11.8195 13.3443 11.9594 13.4754C12.0993 13.6065 12.2774 13.6958 12.4714 13.732C12.6654 13.7682 12.8665 13.7496 13.0492 13.6786C13.2319 13.6077 13.3881 13.4875 13.498 13.3333C13.6079 13.1792 13.6665 12.9979 13.6665 12.8125C13.6665 12.5639 13.5611 12.3254 13.3736 12.1496C13.1861 11.9738 12.9317 11.875 12.6665 11.875Z" fill="#DB4035"/>
</svg>
