<svg width="18" height="18" viewBox="0 0 18 18" fill="none" xmlns="http://www.w3.org/2000/svg">
<circle cx="9" cy="9" r="8.5" stroke="#5297FF"/>
<circle cx="9" cy="9" r="8.5" stroke="#5297FF"/>
<path d="M12.0999 7.875C12.0999 9.43291 10.7429 10.75 8.9999 10.75C7.25693 10.75 5.8999 9.43291 5.8999 7.875C5.8999 6.31709 7.25693 5 8.9999 5C10.7429 5 12.0999 6.31709 12.0999 7.875Z" stroke="#5297FF"/>
<path d="M12.0999 7.875C12.0999 9.43291 10.7429 10.75 8.9999 10.75C7.25693 10.75 5.8999 9.43291 5.8999 7.875C5.8999 6.31709 7.25693 5 8.9999 5C10.7429 5 12.0999 6.31709 12.0999 7.875Z" stroke="#5297FF"/>
<path d="M13.8999 14.3999C13.8999 15.1652 13.4145 15.9282 12.4829 16.5244C11.5569 17.117 10.2473 17.4999 8.7749 17.4999C7.30255 17.4999 5.99295 17.117 5.06695 16.5244C4.13535 15.9282 3.6499 15.1652 3.6499 14.3999C3.6499 13.6347 4.13535 12.8717 5.06695 12.2755C5.99295 11.6828 7.30255 11.2999 8.7749 11.2999C10.2473 11.2999 11.5569 11.6828 12.4829 12.2755C13.4145 12.8717 13.8999 13.6347 13.8999 14.3999Z" stroke="#5297FF"/>
<path d="M13.8999 14.3999C13.8999 15.1652 13.4145 15.9282 12.4829 16.5244C11.5569 17.117 10.2473 17.4999 8.7749 17.4999C7.30255 17.4999 5.99295 17.117 5.06695 16.5244C4.13535 15.9282 3.6499 15.1652 3.6499 14.3999C3.6499 13.6347 4.13535 12.8717 5.06695 12.2755C5.99295 11.6828 7.30255 11.2999 8.7749 11.2999C10.2473 11.2999 11.5569 11.6828 12.4829 12.2755C13.4145 12.8717 13.8999 13.6347 13.8999 14.3999Z" stroke="#5297FF"/>
</svg>
