<svg width="14" height="16" viewBox="0 0 14 16" fill="none" xmlns="http://www.w3.org/2000/svg">
<path d="M13 1.8125H11.5V1.25C11.5 1.10082 11.421 0.957742 11.2803 0.852252C11.1397 0.746763 10.9489 0.6875 10.75 0.6875H3.25C3.05109 0.6875 2.86032 0.746763 2.71967 0.852252C2.57902 0.957742 2.5 1.10082 2.5 1.25V1.8125H1C0.801088 1.8125 0.610322 1.87176 0.46967 1.97725C0.329018 2.08274 0.25 2.22582 0.25 2.375V14.75C0.25 14.8992 0.329018 15.0423 0.46967 15.1477C0.610322 15.2532 0.801088 15.3125 1 15.3125H13C13.1989 15.3125 13.3897 15.2532 13.5303 15.1477C13.671 15.0423 13.75 14.8992 13.75 14.75V2.375C13.75 2.22582 13.671 2.08274 13.5303 1.97725C13.3897 1.87176 13.1989 1.8125 13 1.8125ZM4 1.8125H10V2.9375H4V1.8125ZM12.25 14.1875H1.75V2.9375H2.5V3.5C2.5 3.64918 2.57902 3.79226 2.71967 3.89775C2.86032 4.00324 3.05109 4.0625 3.25 4.0625H10.75C10.9489 4.0625 11.1397 4.00324 11.2803 3.89775C11.421 3.79226 11.5 3.64918 11.5 3.5V2.9375H12.25V14.1875ZM10.75 5.75C10.75 5.89918 10.671 6.04226 10.5303 6.14775C10.3897 6.25324 10.1989 6.3125 10 6.3125H4C3.80109 6.3125 3.61032 6.25324 3.46967 6.14775C3.32902 6.04226 3.25 5.89918 3.25 5.75C3.25 5.60082 3.32902 5.45774 3.46967 5.35225C3.61032 5.24676 3.80109 5.1875 4 5.1875H10C10.1989 5.1875 10.3897 5.24676 10.5303 5.35225C10.671 5.45774 10.75 5.60082 10.75 5.75ZM10.75 8C10.75 8.14918 10.671 8.29226 10.5303 8.39775C10.3897 8.50324 10.1989 8.5625 10 8.5625H4C3.80109 8.5625 3.61032 8.50324 3.46967 8.39775C3.32902 8.29226 3.25 8.14918 3.25 8C3.25 7.85082 3.32902 7.70774 3.46967 7.60225C3.61032 7.49676 3.80109 7.4375 4 7.4375H10C10.1989 7.4375 10.3897 7.49676 10.5303 7.60225C10.671 7.70774 10.75 7.85082 10.75 8ZM10.75 10.25C10.75 10.3992 10.671 10.5423 10.5303 10.6477C10.3897 10.7532 10.1989 10.8125 10 10.8125H4C3.80109 10.8125 3.61032 10.7532 3.46967 10.6477C3.32902 10.5423 3.25 10.3992 3.25 10.25C3.25 10.1008 3.32902 9.95774 3.46967 9.85225C3.61032 9.74676 3.80109 9.6875 4 9.6875H10C10.1989 9.6875 10.3897 9.74676 10.5303 9.85225C10.671 9.95774 10.75 10.1008 10.75 10.25ZM10.75 12.5C10.75 12.6492 10.671 12.7923 10.5303 12.8977C10.3897 13.0032 10.1989 13.0625 10 13.0625H4C3.80109 13.0625 3.61032 13.0032 3.46967 12.8977C3.32902 12.7923 3.25 12.6492 3.25 12.5C3.25 12.3508 3.32902 12.2077 3.46967 12.1023C3.61032 11.9968 3.80109 11.9375 4 11.9375H10C10.1989 11.9375 10.3897 11.9968 10.5303 12.1023C10.671 12.2077 10.75 12.3508 10.75 12.5Z" fill="#25B84C"/>
</svg>
