<svg width="18" height="17" viewBox="0 0 18 17" fill="none" xmlns="http://www.w3.org/2000/svg">
<path d="M4.20019 0C3.88401 0 3.63244 0.237681 3.63244 0.52897V3.99602C3.63244 4.28731 3.88401 4.51924 4.20019 4.51924H4.50724C4.82342 4.51924 5.08078 4.28731 5.08078 3.99602V0.52897C5.08078 0.237681 4.82342 0 4.50724 0H4.20019ZM13.4928 0C13.1766 0 12.9192 0.237681 12.9192 0.52897V3.99602C12.9192 4.28731 13.1766 4.51924 13.4928 4.51924H13.794C14.1102 4.51924 14.3676 4.28731 14.3676 3.99602V0.52897C14.3676 0.237681 14.1102 0 13.794 0H13.4928ZM1.84808 2.52985C0.825454 2.52985 0 3.33181 0 4.3295V14.9089C0 15.9066 0.825454 16.7143 1.84808 16.7143H16.1519C17.1745 16.7143 18 15.9066 18 14.9089V4.3295C18 3.33181 17.1745 2.52985 16.1519 2.52985H14.7499V4.28925C14.7499 4.73487 14.3588 5.09421 13.8751 5.09421H13.4116C12.928 5.09421 12.5369 4.73487 12.5369 4.28925V2.52985H5.46315V4.28925C5.46315 4.73487 5.07205 5.09421 4.58835 5.09421H4.11909C3.63539 5.09421 3.25008 4.73487 3.25008 4.28925V2.52985H1.84808ZM1.15867 7.54932H16.8355V14.2189C16.8355 14.8905 16.2956 15.4264 15.6189 15.4264H2.38107C1.70439 15.4264 1.15867 14.8905 1.15867 14.2189V7.54932Z" fill="white"/>
</svg>
