<svg width="46" height="44" viewBox="0 0 46 44" fill="none" xmlns="http://www.w3.org/2000/svg">
<g clip-path="url(#clip0_25_175)">
<path d="M27.3928 18.6345V16.1061H18.6077V18.6345C18.6077 19.0678 18.2961 19.4441 17.8552 19.5433L11.8158 20.9026C10.9339 21.1012 10.3105 21.8538 10.3105 22.7204V26.5518C10.3105 27.3897 11.0207 28.069 11.8967 28.069H34.1036C34.9797 28.069 35.6898 27.3897 35.6898 26.5518V22.7204C35.6898 21.8539 35.0665 21.1012 34.1846 20.9027L28.1453 19.5434C27.7044 19.4441 27.3928 19.0678 27.3928 18.6345Z" fill="#E6AF78"/>
<path d="M34.1846 20.9026L29.1263 19.7642C28.4064 22.36 25.9405 24.2759 23.0002 24.2759C20.0599 24.2759 17.5939 22.36 16.8742 19.7642L11.8158 20.9026C10.9339 21.1012 10.3105 21.8538 10.3105 22.7203V26.5518C10.3105 27.3897 11.0208 28.069 11.8967 28.069H34.1036C34.9796 28.069 35.6898 27.3897 35.6898 26.5518V22.7203C35.6898 21.8537 35.0665 21.1011 34.1846 20.9026Z" fill="#FFD782"/>
<path d="M18.6076 18.6345C18.6076 18.9479 18.4431 19.2298 18.186 19.4003C23.9763 22.175 27.3928 16.6882 27.3928 16.6882V16.106H18.6077V18.6344H18.6076V18.6345Z" fill="#D29B6E"/>
<path d="M16.6553 5.13528L17.0806 14.0853C17.1203 14.9214 17.5489 15.6968 18.2489 16.199L20.267 17.6467C20.7739 18.0104 21.3904 18.2069 22.024 18.2069H23.9762C24.6098 18.2069 25.2263 18.0104 25.7332 17.6467L27.7512 16.199C28.4512 15.6967 28.8799 14.9214 28.9196 14.0853L29.3449 5.13528H16.6553Z" fill="#F0C087"/>
<path d="M16.6553 5.13528L17.0806 14.0853C17.1203 14.9215 17.5489 15.6968 18.2489 16.199L20.267 17.6467C20.7739 18.0104 21.3904 18.207 22.024 18.207H23C21.5359 17.7402 20.5598 14.0053 20.5598 14.0053L20.6132 9.44891C20.6176 9.07319 20.909 8.76021 21.2977 8.7059C23.8737 8.34659 27.1621 7.63718 29.345 5.57098V5.13519L16.6553 5.13528Z" fill="#E6AF78"/>
<path d="M15.6792 4.66847V5.13528L16.1672 10.2706H17.1434L18.1195 7.46951C18.1195 7.46951 24.4644 7.46952 27.8809 5.60218L28.857 10.2706H29.8332L30.3212 5.13537V4.66855C30.321 2.09009 28.1359 0 25.4405 0H20.5598C17.8643 0 15.6792 2.09009 15.6792 4.66847Z" fill="#5A4146"/>
<path d="M30.2904 11.0045L29.7392 13.1134C29.6739 13.3633 29.4392 13.5385 29.1699 13.5385C28.874 13.5385 28.6244 13.3277 28.5876 13.0469L28.3058 10.89C28.2304 10.3133 28.7006 9.80374 29.3083 9.80374H29.3102C29.9676 9.80374 30.4498 10.3945 30.2904 11.0045Z" fill="#F0C087"/>
<path d="M15.7099 11.0045L16.261 13.1134C16.3264 13.3633 16.561 13.5385 16.8303 13.5385C17.1262 13.5385 17.3758 13.3277 17.4126 13.0469L17.6944 10.89C17.7698 10.3133 17.2996 9.80374 16.6919 9.80374H16.69C16.0328 9.80374 15.5505 10.3945 15.7099 11.0045Z" fill="#E6AF78"/>
<path d="M13.8936 24.2805L10.731 21.563C10.466 21.884 10.3105 22.2879 10.3105 22.7202V26.5517C10.3105 27.3896 11.0207 28.0689 11.8967 28.0689H14.7031V26.0169C14.7031 25.3545 14.4088 24.7233 13.8936 24.2805Z" fill="#FFC36E"/>
<path d="M32.1069 24.2805L35.2695 21.563C35.5346 21.884 35.69 22.2879 35.69 22.7202V26.5517C35.69 27.3896 34.9799 28.0689 34.1038 28.0689H31.2974V26.0169C31.2974 25.3545 31.5917 24.7233 32.1069 24.2805Z" fill="#FFC36E"/>
<path d="M29.1263 19.7642C28.4066 22.36 25.9406 24.2759 23.0003 24.2759C20.06 24.2759 17.5941 22.36 16.8743 19.7642L15.3335 20.1109L15.3412 20.153C16.262 23.4739 19.4116 25.7931 23.0003 25.7931C26.589 25.7931 29.7386 23.4739 30.6595 20.153L30.6637 20.1101L29.1263 19.7642Z" fill="#FFC36E"/>
<path d="M7.13789 42.128L3.59337 43.9104C3.0066 44.2055 2.32083 43.7289 2.43286 43.1039L3.10974 39.3287L0.24238 36.6551C-0.232264 36.2125 0.0296301 35.4414 0.685669 35.3501L4.6485 34.7994L6.42066 31.3645C6.714 30.796 7.56177 30.796 7.85511 31.3645L9.62728 34.7994L13.5901 35.3501C14.2461 35.4414 14.508 36.2124 14.0334 36.6551L11.1659 39.3288L11.8427 43.1039C11.9548 43.7289 11.269 44.2055 10.6822 43.9105L7.13789 42.128Z" fill="#FFCD78"/>
<path d="M13.5901 35.3502L9.62729 34.7994L7.85503 31.3646C7.56169 30.796 6.71402 30.796 6.42059 31.3646L5.28271 33.57L11.5768 43.8047C11.774 43.6406 11.894 43.3901 11.8428 43.1038L11.166 39.3287L14.0335 36.655C14.508 36.2125 14.2462 35.4414 13.5901 35.3502Z" fill="#FFD782"/>
<path d="M9.78568 35.849C9.15839 35.7122 8.66461 35.24 8.52166 34.6399C8.51088 34.5948 8.44844 34.5948 8.43757 34.6399C8.29463 35.24 7.80085 35.7123 7.17356 35.849C7.12639 35.8593 7.12639 35.919 7.17356 35.9294C7.80085 36.0662 8.29463 36.5385 8.43757 37.1385C8.44835 37.1836 8.51079 37.1836 8.52166 37.1385C8.66461 36.5385 9.15839 36.0662 9.78568 35.9294C9.83284 35.9192 9.83284 35.8593 9.78568 35.849Z" fill="white"/>
<path d="M22.9999 42.128L19.4554 43.9104C18.8686 44.2055 18.1828 43.7289 18.2949 43.1038L18.9717 39.3287L16.1042 36.655C15.6296 36.2124 15.8914 35.4413 16.5475 35.3501L20.5103 34.7993L22.2825 31.3644C22.5758 30.7959 23.4236 30.7959 23.7169 31.3644L25.4891 34.7993L29.4519 35.3501C30.108 35.4413 30.3699 36.2123 29.8952 36.655L27.0277 39.3287L27.7046 43.1038C27.8166 43.7288 27.1308 44.2054 26.544 43.9104L22.9999 42.128Z" fill="#FFCD78"/>
<path d="M29.4524 35.3502L25.4896 34.7994L23.7173 31.3646C23.424 30.796 22.5763 30.796 22.2829 31.3646L21.145 33.57L27.4391 43.8047C27.6363 43.6406 27.7564 43.3901 27.7051 43.1038L27.0283 39.3287L29.8958 36.655C30.3704 36.2125 30.1085 35.4414 29.4524 35.3502Z" fill="#FFD782"/>
<path d="M25.6475 35.849C25.0202 35.7122 24.5264 35.24 24.3835 34.6399C24.3727 34.5948 24.3103 34.5948 24.2994 34.6399C24.1564 35.24 23.6627 35.7123 23.0354 35.849C22.9882 35.8593 22.9882 35.919 23.0354 35.9294C23.6627 36.0662 24.1564 36.5385 24.2994 37.1385C24.3102 37.1836 24.3726 37.1836 24.3835 37.1385C24.5264 36.5385 25.0202 36.0662 25.6475 35.9294C25.6947 35.9192 25.6947 35.8593 25.6475 35.849Z" fill="white"/>
<path d="M38.8622 42.128L35.3177 43.9104C34.7309 44.2055 34.0451 43.7289 34.1572 43.1038L34.834 39.3287L31.9665 36.655C31.4919 36.2124 31.7538 35.4413 32.4098 35.3501L36.3726 34.7993L38.1448 31.3644C38.4381 30.7959 39.2859 30.7959 39.5792 31.3644L41.3514 34.7993L45.3142 35.3501C45.9703 35.4413 46.2322 36.2123 45.7575 36.655L42.89 39.3287L43.5669 43.1038C43.6789 43.7288 42.9931 44.2054 42.4063 43.9104L38.8622 42.128Z" fill="#FFCD78"/>
<path d="M45.3142 35.3502L41.3514 34.7994L39.5792 31.3646C39.2858 30.796 38.4381 30.796 38.1447 31.3646L37.0068 33.57L43.3009 43.8047C43.4981 43.6406 43.6182 43.3901 43.567 43.1038L42.8901 39.3287L45.7576 36.655C46.2322 36.2125 45.9702 35.4414 45.3142 35.3502Z" fill="#FFD782"/>
<path d="M41.5098 35.849C40.8825 35.7122 40.3887 35.24 40.2458 34.6399C40.235 34.5948 40.1726 34.5948 40.1617 34.6399C40.0188 35.24 39.525 35.7123 38.8977 35.849C38.8505 35.8593 38.8505 35.919 38.8977 35.9294C39.525 36.0662 40.0188 36.5385 40.1617 37.1385C40.1725 37.1836 40.2349 37.1836 40.2458 37.1385C40.3887 36.5385 40.8825 36.0662 41.5098 35.9294C41.557 35.9192 41.557 35.8593 41.5098 35.849Z" fill="white"/>
</g>
<defs>
<clipPath id="clip0_25_175">
<rect width="46" height="44" fill="white"/>
</clipPath>
</defs>
</svg>
