<svg width="21" height="21" viewBox="0 0 21 21" fill="none" xmlns="http://www.w3.org/2000/svg">
<path d="M15.2045 0H5.79508C2.59968 0 0 2.5998 0 5.79521V15.2047C0 18.4002 2.59968 20.9999 5.79508 20.9999H15.2045C18.4002 20.9999 20.9999 18.4001 20.9999 15.2047V5.79521C21 2.5998 18.4002 0 15.2045 0ZM19.1368 15.2047C19.1368 17.3728 17.3728 19.1367 15.2047 19.1367H5.79508C3.62705 19.1368 1.86321 17.3728 1.86321 15.2047V5.79521C1.86321 3.62717 3.62705 1.86321 5.79508 1.86321H15.2045C17.3727 1.86321 19.1367 3.62717 19.1367 5.79521V15.2047H19.1368Z" fill="#B1004B"/>
<path d="M10.5 5.08887C7.51626 5.08887 5.08887 7.51626 5.08887 10.5C5.08887 13.4836 7.51626 15.9109 10.5 15.9109C13.4837 15.9109 15.9111 13.4836 15.9111 10.5C15.9111 7.51626 13.4837 5.08887 10.5 5.08887ZM10.5 14.0476C8.54376 14.0476 6.95208 12.4561 6.95208 10.4999C6.95208 8.54351 8.54363 6.95195 10.5 6.95195C12.4564 6.95195 14.0479 8.54351 14.0479 10.4999C14.0479 12.4561 12.4563 14.0476 10.5 14.0476Z" fill="#B1004B"/>
<path d="M16.1378 3.50928C15.7789 3.50928 15.4262 3.65461 15.1727 3.90925C14.9179 4.16264 14.7715 4.51541 14.7715 4.87563C14.7715 5.23473 14.9181 5.58738 15.1727 5.84202C15.4261 6.09541 15.7789 6.24199 16.1378 6.24199C16.4981 6.24199 16.8496 6.09541 17.1042 5.84202C17.3589 5.58738 17.5042 5.23461 17.5042 4.87563C17.5042 4.51541 17.3589 4.16264 17.1042 3.90925C16.8508 3.65461 16.4981 3.50928 16.1378 3.50928Z" fill="#B1004B"/>
</svg>
