<svg width="20" height="20" viewBox="0 0 20 20" fill="none" xmlns="http://www.w3.org/2000/svg">
<path d="M9.99993 0C4.48592 0 0 3.3938 0 7.56527C0 9.28592 1.56772 11.8021 4.65952 15.0438C6.89477 17.3875 9.09397 19.2393 9.18646 19.317L10 20L10.8135 19.317C10.906 19.2393 13.1052 17.3875 15.3405 15.0438C18.4323 11.8021 20 9.28598 20 7.56527C19.9999 3.3938 15.5139 0 9.99993 0ZM9.99993 17.5052C7.24533 15.0689 2.19007 10.0785 2.19007 7.56527C2.19007 4.30739 5.69352 1.65686 9.99993 1.65686C14.3063 1.65686 17.8098 4.30739 17.8098 7.56527C17.8099 10.0785 12.7545 15.0689 9.99993 17.5052Z" fill="white"/>
<path d="M9.99901 10.3099C12.0027 10.3099 13.6269 9.08111 13.6269 7.56529C13.6269 6.04947 12.0027 4.82065 9.99901 4.82065C7.99537 4.82065 6.37109 6.04947 6.37109 7.56529C6.37109 9.08111 7.99537 10.3099 9.99901 10.3099Z" fill="white"/>
</svg>
