<svg width="14" height="13" viewBox="0 0 14 13" fill="none" xmlns="http://www.w3.org/2000/svg">
<path fill-rule="evenodd" clip-rule="evenodd" d="M6.74725 1.72072e-07C5.86518 -0.00023996 5.00625 0.250861 4.29652 0.716447C3.5868 1.18203 3.06367 1.83758 2.80391 2.58688C2.54415 3.33618 2.56145 4.13976 2.85325 4.87968C3.14506 5.61959 3.69602 6.25688 4.42525 6.698C3.15963 7.11062 2.06187 7.85047 1.27327 8.82234C0.484674 9.7942 0.0413145 10.9536 0.000253359 12.1513C-0.00422217 12.2839 0.0507489 12.4127 0.153073 12.5093C0.255398 12.6059 0.396694 12.6624 0.545878 12.6663C0.695063 12.6703 0.839915 12.6214 0.948569 12.5305C1.05722 12.4395 1.12078 12.3139 1.12525 12.1813C1.16992 10.8823 1.78185 9.64978 2.83137 8.74494C3.8809 7.8401 5.28554 7.33407 6.74763 7.33407C8.20972 7.33407 9.61436 7.8401 10.6639 8.74494C11.7134 9.64978 12.3253 10.8823 12.37 12.1813C12.3706 12.2479 12.3861 12.3137 12.4157 12.3749C12.4452 12.436 12.4882 12.4914 12.5422 12.5376C12.5961 12.5838 12.6599 12.6199 12.7297 12.6439C12.7996 12.6679 12.8741 12.6793 12.949 12.6773C13.0239 12.6754 13.0975 12.6601 13.1657 12.6325C13.2338 12.6049 13.2951 12.5655 13.3459 12.5166C13.3967 12.4677 13.436 12.4102 13.4615 12.3476C13.4869 12.285 13.4981 12.2185 13.4943 12.152C13.4533 10.9542 13.01 9.79461 12.2214 8.82261C11.4328 7.85062 10.335 7.11066 9.06925 6.698C9.79849 6.25688 10.3494 5.61959 10.6413 4.87968C10.9331 4.13976 10.9504 3.33618 10.6906 2.58688C10.4308 1.83758 9.9077 1.18203 9.19798 0.716447C8.48826 0.250861 7.62933 -0.00023996 6.74725 1.72072e-07V1.72072e-07ZM3.74725 3.66667C3.74725 2.95942 4.06332 2.28115 4.62593 1.78105C5.18854 1.28095 5.9516 1 6.74725 1C7.5429 1 8.30597 1.28095 8.86857 1.78105C9.43118 2.28115 9.74725 2.95942 9.74725 3.66667C9.74725 4.37391 9.43118 5.05219 8.86857 5.55228C8.30597 6.05238 7.5429 6.33333 6.74725 6.33333C5.9516 6.33333 5.18854 6.05238 4.62593 5.55228C4.06332 5.05219 3.74725 4.37391 3.74725 3.66667V3.66667Z" fill="white"/>
</svg>
