<svg width="22" height="22" viewBox="0 0 22 22" fill="none" xmlns="http://www.w3.org/2000/svg">
<circle cx="11" cy="11" r="10.5" stroke="white"/>
<circle cx="11" cy="11" r="10.5" stroke="white"/>
<path d="M14.9006 9.625C14.9006 11.5971 13.1854 13.25 11.0006 13.25C8.81579 13.25 7.10059 11.5971 7.10059 9.625C7.10059 7.65287 8.81579 6 11.0006 6C13.1854 6 14.9006 7.65287 14.9006 9.625Z" stroke="white"/>
<path d="M14.9006 9.625C14.9006 11.5971 13.1854 13.25 11.0006 13.25C8.81579 13.25 7.10059 11.5971 7.10059 9.625C7.10059 7.65287 8.81579 6 11.0006 6C13.1854 6 14.9006 7.65287 14.9006 9.625Z" stroke="white"/>
<path d="M17.1006 17.6C17.1006 18.5861 16.4752 19.5491 15.3174 20.2901C14.1652 21.0275 12.5431 21.5 10.7256 21.5C8.90805 21.5 7.28596 21.0275 6.13375 20.2901C4.97595 19.5491 4.35059 18.5861 4.35059 17.6C4.35059 16.6138 4.97595 15.6508 6.13375 14.9098C7.28596 14.1724 8.90805 13.7 10.7256 13.7C12.5431 13.7 14.1652 14.1724 15.3174 14.9098C16.4752 15.6508 17.1006 16.6138 17.1006 17.6Z" stroke="white"/>
<path d="M17.1006 17.6C17.1006 18.5861 16.4752 19.5491 15.3174 20.2901C14.1652 21.0275 12.5431 21.5 10.7256 21.5C8.90805 21.5 7.28596 21.0275 6.13375 20.2901C4.97595 19.5491 4.35059 18.5861 4.35059 17.6C4.35059 16.6138 4.97595 15.6508 6.13375 14.9098C7.28596 14.1724 8.90805 13.7 10.7256 13.7C12.5431 13.7 14.1652 14.1724 15.3174 14.9098C16.4752 15.6508 17.1006 16.6138 17.1006 17.6Z" stroke="white"/>
</svg>
