<svg width="20" height="20" viewBox="0 0 20 20" fill="none" xmlns="http://www.w3.org/2000/svg">
<path d="M18.9763 7.90074L17.5725 7.6626C17.4263 7.19049 17.2382 6.73509 17.0085 6.30059L17.8357 5.14329C18.1866 4.65029 18.1323 3.97764 17.702 3.55149L16.457 2.30646C16.223 2.0725 15.9138 1.94298 15.5838 1.94298C15.3247 1.94298 15.0782 2.02236 14.8693 2.17277L13.7079 3C13.2567 2.76186 12.7845 2.56549 12.2957 2.41927L12.0618 1.03218C11.9615 0.434736 11.4476 0.000228882 10.8418 0.000228882H9.08288C8.47707 0.000228882 7.96318 0.434736 7.86291 1.03218L7.62059 2.45269C7.15266 2.59892 6.69726 2.7911 6.26276 3.02507L5.11382 2.19783C4.90492 2.04743 4.65424 1.96805 4.39521 1.96805C4.06515 1.96805 3.7518 2.09756 3.52202 2.33153L2.27281 3.57656C1.84666 4.00271 1.78817 4.67536 2.13911 5.16836L2.9747 6.34237C2.74492 6.78105 2.56109 7.23645 2.41904 7.70856L1.03196 7.94252C0.434507 8.04279 0 8.55668 0 9.16249V10.9214C0 11.5272 0.434507 12.0411 1.03196 12.1414L2.45246 12.3837C2.59869 12.8516 2.79087 13.307 3.02484 13.7415L2.20178 14.8863C1.85083 15.3793 1.90515 16.0519 2.33548 16.4781L3.58051 17.7231C3.81447 17.9571 4.12364 18.0866 4.4537 18.0866C4.71273 18.0866 4.95923 18.0072 5.16813 17.8568L6.34214 17.0212C6.76411 17.2427 7.20697 17.4223 7.66237 17.5644L7.89634 18.9681C7.99661 19.5656 8.5105 20.0001 9.1163 20.0001H10.8794C11.4852 20.0001 11.9991 19.5656 12.0994 18.9681L12.3375 17.5644C12.8096 17.4181 13.265 17.2301 13.6995 17.0003L14.8568 17.8276C15.0657 17.978 15.3164 18.0574 15.5754 18.0574C15.9055 18.0574 16.2146 17.9278 16.4486 17.6939L17.6936 16.4488C18.1198 16.0227 18.1783 15.35 17.8273 14.857L17.0001 13.6956C17.2299 13.2569 17.4221 12.8015 17.5641 12.3336L18.9679 12.0996C19.5654 11.9993 19.9999 11.4854 19.9999 10.8796V9.12071C20.0082 8.5149 19.5737 8.00101 18.9763 7.90074ZM18.8802 10.8796C18.8802 10.9339 18.8426 10.9799 18.7883 10.9883L17.0335 11.2807C16.8121 11.3183 16.6366 11.4813 16.5823 11.6943C16.4235 12.3085 16.1812 12.8976 15.8553 13.4449C15.7425 13.6371 15.7509 13.8752 15.8804 14.0591L16.9124 15.513C16.9416 15.5548 16.9374 15.6174 16.8998 15.655L15.6548 16.9001C15.6256 16.9293 15.5963 16.9335 15.5754 16.9335C15.5504 16.9335 15.5295 16.9251 15.5127 16.9126L14.063 15.8806C13.8833 15.7511 13.641 15.7428 13.4488 15.8556C12.9015 16.1815 12.3124 16.4238 11.6983 16.5825C11.481 16.6368 11.3181 16.8165 11.2847 17.0338L10.988 18.7885C10.9797 18.8428 10.9337 18.8804 10.8794 18.8804H9.12048C9.06616 18.8804 9.02021 18.8428 9.01185 18.7885L8.71939 17.0338C8.68179 16.8123 8.51885 16.6368 8.30578 16.5825C7.70833 16.428 7.13177 16.1898 6.59281 15.8806C6.50508 15.8305 6.40481 15.8054 6.30871 15.8054C6.19591 15.8054 6.07893 15.8389 5.98283 15.9099L4.52055 16.9502C4.49966 16.9627 4.47877 16.9711 4.45788 16.9711C4.44117 16.9711 4.40774 16.9669 4.3785 16.9377L3.13347 15.6926C3.09587 15.655 3.09169 15.5965 3.12093 15.5506L4.14871 14.1092C4.27823 13.9254 4.28658 13.683 4.17378 13.4908C3.8479 12.9477 3.59722 12.3586 3.43846 11.7445C3.37997 11.5314 3.20449 11.3684 2.98724 11.3308L1.21996 11.03C1.16565 11.0217 1.12805 10.9757 1.12805 10.9214V9.16249C1.12805 9.10817 1.16565 9.06222 1.21996 9.05386L2.96217 8.7614C3.1836 8.7238 3.36325 8.56086 3.41757 8.34361C3.57215 7.72945 3.8103 7.13618 4.132 6.58887C4.2448 6.39668 4.23227 6.15854 4.10275 5.97888L3.06244 4.5166C3.0332 4.47482 3.03737 4.41215 3.07498 4.37455L4.32001 3.12952C4.34925 3.10027 4.3785 3.09609 4.39939 3.09609C4.42446 3.09609 4.44535 3.10445 4.46206 3.11698L5.90345 4.14476C6.08728 4.27428 6.3296 4.28263 6.52179 4.16983C7.06492 3.84395 7.65401 3.59327 8.26817 3.43451C8.48125 3.37602 8.64419 3.20054 8.68179 2.98329L8.98261 1.21601C8.99096 1.1617 9.03692 1.1241 9.09123 1.1241H10.8502C10.9045 1.1241 10.9504 1.1617 10.9588 1.21601L11.2512 2.95822C11.2888 3.17965 11.4518 3.35931 11.669 3.41362C12.2999 3.57238 12.9015 3.81888 13.4614 4.14894C13.6536 4.26174 13.8917 4.25339 14.0755 4.12387L15.5169 3.08774C15.5378 3.0752 15.5587 3.06685 15.5796 3.06685C15.5963 3.06685 15.6297 3.07103 15.659 3.10027L16.904 4.3453C16.9416 4.3829 16.9458 4.4414 16.9165 4.48735L15.8846 5.9371C15.7551 6.11676 15.7467 6.35908 15.8595 6.55126C16.1854 7.09858 16.4277 7.68767 16.5865 8.30183C16.6408 8.51908 16.8204 8.68202 17.0377 8.71544L18.7924 9.01208C18.8468 9.02044 18.8844 9.06639 18.8844 9.12071V10.8796H18.8802V10.8796Z" fill="#969696"/>
<path d="M10.0019 5.68207C7.62043 5.68207 5.68604 7.61646 5.68604 9.9979C5.68604 12.3793 7.62043 14.3137 10.0019 14.3137C12.3833 14.3137 14.3177 12.3793 14.3177 9.9979C14.3177 7.61646 12.3833 5.68207 10.0019 5.68207ZM10.0019 13.1857C8.24294 13.1857 6.81408 11.7568 6.81408 9.9979C6.81408 8.23898 8.24294 6.81012 10.0019 6.81012C11.7608 6.81012 13.1896 8.23898 13.1896 9.9979C13.1896 11.7568 11.7608 13.1857 10.0019 13.1857Z" fill="#969696"/>
</svg>
