<svg width="19" height="19" viewBox="0 0 19 19" fill="none" xmlns="http://www.w3.org/2000/svg">
<path d="M9.01789 15.4733L4.5398 17.938C3.79849 18.346 2.93209 17.687 3.07363 16.8227L3.9288 11.6025L0.306219 7.90542C-0.293439 7.29342 0.0374341 6.22712 0.866263 6.10092L5.87283 5.33932L8.11176 0.589653C8.48236 -0.196551 9.55341 -0.196551 9.92401 0.589653L12.1629 5.33932L17.1695 6.10092C17.9983 6.22712 18.3292 7.2933 17.7296 7.90542L14.1067 11.6026L14.9619 16.8228C15.1035 17.687 14.2371 18.346 13.4957 17.9381L9.01789 15.4733Z" fill="#FFCD78"/>
<path d="M17.1702 6.10092L12.1637 5.33932L9.92463 0.589653C9.55402 -0.196551 8.48309 -0.196551 8.11237 0.589653L6.6748 3.63928L14.6267 17.7918C14.8758 17.5648 15.0274 17.2184 14.9627 16.8226L14.1076 11.6023L17.7304 7.90518C18.3299 7.2933 17.9991 6.22701 17.1702 6.10092Z" fill="#FFD782"/>
<path d="M12.3624 6.79093C11.5699 6.60175 10.946 5.94875 10.7654 5.11906C10.7518 5.05667 10.6729 5.05667 10.6592 5.11906C10.4786 5.94875 9.85478 6.60186 9.06227 6.79093C9.00268 6.80519 9.00268 6.88778 9.06227 6.90216C9.85478 7.09122 10.4786 7.74433 10.6592 8.57403C10.6728 8.63642 10.7517 8.63642 10.7654 8.57403C10.946 7.74433 11.5699 7.09122 12.3624 6.90216C12.422 6.88802 12.422 6.80519 12.3624 6.79093Z" fill="white"/>
</svg>
