<svg width="16" height="16" viewBox="0 0 16 16" fill="none" xmlns="http://www.w3.org/2000/svg">
<path d="M8 0C3.58877 0 0 3.58878 0 8.00003C0 12.4113 3.58877 16 8 16C12.4112 16 16 12.4112 16 8.00003C16 3.58883 12.4112 0 8 0ZM8 15.2026C4.02844 15.2026 0.797374 11.9715 0.797374 8.00003C0.797374 4.02851 4.02844 0.797377 8 0.797377C11.9716 0.797377 15.2026 4.02845 15.2026 7.99997C15.2026 11.9715 11.9715 15.2026 8 15.2026Z" fill="white"/>
<path d="M7.60221 7.60134H4.4209V8.39872H8.39958V2.3327H7.60221V7.60134Z" fill="white"/>
</svg>
