<svg width="26" height="27" viewBox="0 0 26 27" fill="none" xmlns="http://www.w3.org/2000/svg">
<circle cx="13" cy="13" r="13" fill="#3A4DE2"/>
<path d="M19.4138 23.4415L14.7052 15.286C15.3065 15.066 15.8578 14.7164 16.3241 14.2503C17.1666 13.4078 17.6306 12.2875 17.6306 11.0961C17.6306 8.6365 15.6295 6.63538 13.1699 6.63538C10.7103 6.63538 8.70913 8.63644 8.70913 11.0961C8.70913 13.0168 9.92932 14.6577 11.6352 15.2847L6.92589 23.4415C6.64414 23.9294 6.83303 24.5552 7.33872 24.8053C10.9901 26.6113 15.3498 26.6113 19.0011 24.8053C19.506 24.5556 19.6959 23.93 19.4138 23.4415Z" fill="#FFB64C"/>
<path d="M19.4136 23.4415L14.705 15.286C15.3062 15.066 15.8576 14.7164 16.3238 14.2503C17.1664 13.4078 17.6304 12.2875 17.6303 11.0961C17.6303 8.6365 15.6293 6.63538 13.1696 6.63538C13.1655 6.63538 13.1614 6.6357 13.1572 6.6357V26.1596C15.1641 26.1616 17.1714 25.7102 19.0008 24.8054C19.5058 24.5556 19.6957 23.93 19.4136 23.4415Z" fill="#FF8700"/>
</svg>
