<svg width="25" height="22" viewBox="0 0 25 22" fill="none" xmlns="http://www.w3.org/2000/svg">
<g clip-path="url(#clip0_56_556)">
<path d="M12.5 0C5.59783 0 0 4.92609 0 11C0 17.0739 5.59783 22 12.5 22C19.4022 22 25 17.0739 25 11C25 4.92609 19.4022 0 12.5 0ZM13.5054 20.0391C13.4511 20.0391 13.3967 20.0391 13.3152 20.063V14.8739C14.7283 14.85 16.0054 14.8261 17.1739 14.7543C16.1413 17.5522 14.212 19.4174 13.5054 20.0391ZM11.4946 20.0391C10.7609 19.3935 8.8587 17.5283 7.82609 14.7543C8.96739 14.8261 10.2717 14.8739 11.6848 14.8739V20.063C11.6304 20.063 11.5761 20.0391 11.4946 20.0391ZM2.17391 11C2.17391 10.4022 2.25543 9.80435 2.36413 9.23043C2.96196 9.13478 4.10326 8.9913 5.70652 8.84783C5.57065 9.5413 5.48913 10.2587 5.48913 11.0239C5.48913 11.7891 5.57065 12.5065 5.67935 13.1761C4.10326 13.0326 2.93478 12.8891 2.33696 12.7935C2.25543 12.1957 2.17391 11.5978 2.17391 11ZM7.14674 11C7.14674 10.187 7.25543 9.42174 7.41848 8.70435C8.66848 8.63261 10.0815 8.56087 11.6848 8.56087V13.4391C10.1087 13.4152 8.66848 13.3674 7.3913 13.2717C7.25543 12.5783 7.14674 11.813 7.14674 11ZM13.4783 1.96087C14.212 2.60652 16.087 4.51957 17.1467 7.24565C16.0054 7.17391 14.7283 7.12609 13.3152 7.12609V1.93696C13.3696 1.93696 13.4239 1.96087 13.4783 1.96087ZM11.6848 1.93696V7.12609C10.2717 7.15 8.99457 7.17391 7.85326 7.24565C8.88587 4.51957 10.788 2.60652 11.4946 1.96087C11.5761 1.96087 11.6304 1.93696 11.6848 1.93696ZM13.3152 13.4391V8.56087C14.8913 8.58478 16.3315 8.63261 17.5815 8.70435C17.7446 9.42174 17.8533 10.187 17.8533 11C17.8533 11.813 17.7717 12.5783 17.6087 13.2957C16.3587 13.3674 14.9185 13.4152 13.3152 13.4391ZM19.2663 8.84783C20.8696 8.9913 22.0109 9.13478 22.6087 9.23043C22.7446 9.80435 22.8261 10.4022 22.8261 11C22.8261 11.5978 22.7446 12.1957 22.6359 12.7696C22.038 12.8652 20.8967 13.0087 19.2935 13.1522C19.4293 12.4587 19.4837 11.7413 19.4837 10.9761C19.4837 10.2587 19.4022 9.51739 19.2663 8.84783ZM22.1196 7.7C21.3587 7.60435 20.2717 7.48478 18.8859 7.36522C18.2337 5.3087 17.0924 3.6587 16.1413 2.48696C18.8859 3.39565 21.0598 5.3087 22.1196 7.7ZM8.8587 2.48696C7.88043 3.63478 6.7663 5.28478 6.11413 7.3413C4.75543 7.43696 3.66848 7.58043 2.88043 7.67609C3.94022 5.3087 6.1413 3.39565 8.8587 2.48696ZM2.88043 14.3C3.6413 14.3957 4.72826 14.5152 6.08696 14.6348C6.73913 16.6913 7.82609 18.3413 8.80435 19.4891C6.08696 18.5565 3.94022 16.6674 2.88043 14.3ZM16.1957 19.4891C17.1739 18.3413 18.2609 16.7152 18.913 14.6587C20.2717 14.563 21.3587 14.4196 22.1196 14.3239C21.0598 16.6674 18.913 18.5565 16.1957 19.4891Z" fill="#1A00BD"/>
</g>
<defs>
<clipPath id="clip0_56_556">
<rect width="25" height="22" fill="white"/>
</clipPath>
</defs>
</svg>
